<?xml version="1.0" encoding="UTF-8" standalone="no"?>
<!-- Created with Inkscape (http://www.inkscape.org/) -->

<svg
   width="632.16333"
   height="852.39453"
   viewBox="0 0 167.25988 225.52939"
   version="1.1"
   id="svg1"
   xmlns="http://www.w3.org/2000/svg"
   xmlns:svg="http://www.w3.org/2000/svg">
  <defs
     id="defs1" />
  <g
     id="layer1"
     style="display:inline"
     transform="translate(269.6312,452.63106)">
    <path
       style="fill:#343a40;fill-opacity:1;stroke-width:0.768435"
       d="m -122.10778,-232.77775 c -15.53841,-4.63423 -19.6498,-6.13459 -20.16318,-7.35808 -0.35467,-0.84528 -3.42674,-14.12409 -6.82682,-29.50848 -3.40008,-15.38435 -6.36092,-28.26115 -6.57966,-28.61505 -1.59443,-2.57988 -14.3259,-7.66263 -22.95959,-9.16612 -6.57093,-1.14427 -20.58822,-0.51007 -26.9227,1.21811 -6.54251,1.78496 -13.34004,4.95366 -13.77428,6.42102 -0.20338,0.68723 -2.64983,13.52523 -5.43658,28.52891 -2.78675,15.00369 -5.22926,27.82925 -5.4278,28.50125 -0.27012,0.91428 -5.23723,2.30461 -19.73448,5.52383 -10.65542,2.36611 -19.51905,4.15646 -19.69696,3.97856 -0.27009,-0.27009 38.96937,-210.29155 39.353,-210.62913 0.2958,-0.26033 39.23118,-8.68246 39.38641,-8.51972 0.0938,0.0984 -4.63981,25.73711 -10.51922,56.97495 -5.8794,31.23787 -10.60156,56.87933 -10.49369,56.98101 0.10787,0.10171 3.30829,-0.89455 7.11204,-2.2139 6.48141,-2.24808 7.59181,-2.39765 17.674,-2.38048 9.51203,0.0161 11.45119,0.24987 16.74223,2.01737 5.14664,1.71929 5.93077,1.82099 5.60275,0.72678 -0.54644,-1.82279 -25.03451,-111.68208 -25.03451,-112.31073 0,-0.28776 8.89912,2.11058 19.77582,5.32966 17.97271,5.31919 19.83224,6.02615 20.39457,7.75364 0.92041,2.82755 47.51721,212.24943 47.26406,212.42081 -0.11941,0.0808 -9.00035,-2.47256 -19.73541,-5.67421 z"
       id="path29" />
  </g>
</svg>
